<svg width="847" height="1062" viewBox="0 0 847 1062" fill="none" xmlns="http://www.w3.org/2000/svg">
<path d="M0 0H847V1062H0V0Z" fill="#0a192f"/>
<path d="M58 60H786V971H58V60Z" fill="#60EF2E"/>
<path d="M135 109C135 109 652.998 179 707.999 109C763 39.0001 707.999 528.5 707.999 528.5V923C707.999 923 426.5 1022.5 420.5 923C414.5 823.5 135 923 135 923V109Z" fill="#00C64F"/>
<path d="M422 213.5C338.74 213.5 271.167 284.06 271.167 371C271.167 457.94 338.74 528.5 422 528.5C505.26 528.5 572.833 457.94 572.833 371C572.833 284.06 505.26 213.5 422 213.5ZM443.268 466.918V497H402.995V466.603C377.202 460.933 355.332 443.607 353.672 413.052H383.236C384.744 429.59 395.604 442.505 423.207 442.505C452.77 442.505 459.407 427.07 459.407 417.462C459.407 404.39 452.77 392.105 419.134 383.758C381.728 374.308 356.086 358.243 356.086 325.955C356.086 298.865 377.052 281.225 402.995 275.397V245H443.268V275.712C471.323 282.8 485.35 305.008 486.255 329.105H456.692C455.938 311.623 447.038 299.652 423.207 299.652C400.582 299.652 387.007 310.362 387.007 325.482C387.007 338.712 396.811 347.375 427.279 355.565C457.748 363.755 490.328 377.457 490.328 417.147C490.177 445.97 469.513 461.72 443.268 466.918Z" fill="black"/>
<path d="M135 624H706V754H135V624Z" fill="#DDF9D9"/>
<path d="M280.273 713V666.455H299.5C302.985 666.455 305.992 667.136 308.523 668.5C311.068 669.848 313.03 671.735 314.409 674.159C315.788 676.568 316.477 679.371 316.477 682.568C316.477 685.78 315.773 688.591 314.364 691C312.97 693.394 310.977 695.25 308.386 696.568C305.795 697.886 302.72 698.545 299.159 698.545H287.295V689.682H297.068C298.765 689.682 300.182 689.386 301.318 688.795C302.47 688.205 303.341 687.379 303.932 686.318C304.523 685.242 304.818 683.992 304.818 682.568C304.818 681.129 304.523 679.886 303.932 678.841C303.341 677.78 302.47 676.962 301.318 676.386C300.167 675.811 298.75 675.523 297.068 675.523H291.523V713H280.273Z" fill="black"/>
<path d="M322.023 713V666.455H333.273V703.864H352.636V713H322.023Z" fill="black"/>
<path d="M383.619 680.409C383.468 678.742 382.794 677.447 381.597 676.523C380.415 675.583 378.725 675.114 376.528 675.114C375.074 675.114 373.862 675.303 372.892 675.682C371.922 676.061 371.195 676.583 370.71 677.25C370.225 677.902 369.975 678.652 369.96 679.5C369.93 680.197 370.066 680.811 370.369 681.341C370.688 681.871 371.142 682.341 371.733 682.75C372.339 683.144 373.066 683.492 373.915 683.795C374.763 684.099 375.718 684.364 376.778 684.591L380.778 685.5C383.081 686 385.112 686.667 386.869 687.5C388.642 688.333 390.127 689.326 391.324 690.477C392.536 691.629 393.453 692.955 394.074 694.455C394.695 695.955 395.013 697.636 395.028 699.5C395.013 702.439 394.271 704.962 392.801 707.068C391.331 709.174 389.218 710.788 386.46 711.909C383.718 713.03 380.407 713.591 376.528 713.591C372.634 713.591 369.241 713.008 366.347 711.841C363.453 710.674 361.203 708.901 359.597 706.523C357.991 704.144 357.165 701.136 357.119 697.5H367.892C367.983 699 368.384 700.25 369.097 701.25C369.809 702.25 370.786 703.008 372.028 703.523C373.286 704.038 374.741 704.295 376.392 704.295C377.907 704.295 379.195 704.091 380.256 703.682C381.331 703.273 382.157 702.705 382.733 701.977C383.309 701.25 383.604 700.417 383.619 699.477C383.604 698.599 383.331 697.849 382.801 697.227C382.271 696.591 381.453 696.045 380.347 695.591C379.256 695.121 377.862 694.689 376.165 694.295L371.301 693.159C367.271 692.235 364.097 690.742 361.778 688.682C359.46 686.606 358.309 683.803 358.324 680.273C358.309 677.394 359.081 674.871 360.642 672.705C362.203 670.538 364.362 668.848 367.119 667.636C369.877 666.424 373.021 665.818 376.551 665.818C380.157 665.818 383.286 666.432 385.938 667.659C388.604 668.871 390.672 670.576 392.142 672.773C393.612 674.97 394.362 677.515 394.392 680.409H383.619Z" fill="black"/>
<path d="M414.46 713V666.455H446.233V675.591H425.71V685.136H444.21V694.295H425.71V713H414.46Z" fill="black"/>
<path d="M480.057 666.455H491.284V696.477C491.284 699.947 490.458 702.97 488.807 705.545C487.155 708.106 484.852 710.091 481.898 711.5C478.943 712.894 475.511 713.591 471.602 713.591C467.648 713.591 464.193 712.894 461.239 711.5C458.284 710.091 455.989 708.106 454.352 705.545C452.716 702.97 451.898 699.947 451.898 696.477V666.455H463.148V695.5C463.148 697.106 463.496 698.538 464.193 699.795C464.905 701.053 465.898 702.038 467.17 702.75C468.443 703.462 469.92 703.818 471.602 703.818C473.284 703.818 474.754 703.462 476.011 702.75C477.284 702.038 478.277 701.053 478.989 699.795C479.701 698.538 480.057 697.106 480.057 695.5V666.455Z" fill="black"/>
<path d="M537.949 666.455V713H528.403L509.881 686.136H509.585V713H498.335V666.455H508.017L526.335 693.273H526.722V666.455H537.949Z" fill="black"/>
<path d="M562.227 713H545.023V666.455H562.205C566.947 666.455 571.03 667.386 574.455 669.25C577.894 671.098 580.545 673.765 582.409 677.25C584.273 680.72 585.205 684.871 585.205 689.705C585.205 694.553 584.273 698.72 582.409 702.205C580.561 705.689 577.917 708.364 574.477 710.227C571.038 712.076 566.955 713 562.227 713ZM556.273 703.409H561.795C564.402 703.409 566.606 702.97 568.409 702.091C570.227 701.197 571.598 699.75 572.523 697.75C573.462 695.735 573.932 693.053 573.932 689.705C573.932 686.356 573.462 683.689 572.523 681.705C571.583 679.705 570.197 678.265 568.364 677.386C566.545 676.492 564.303 676.045 561.636 676.045H556.273V703.409Z" fill="black"/>
</svg>
